<?xml version="1.0" standalone="no"?>
<!DOCTYPE svg PUBLIC "-//W3C//DTD SVG 20010904//EN"
 "http://www.w3.org/TR/2001/REC-SVG-20010904/DTD/svg10.dtd">
<svg version="1.0" xmlns="http://www.w3.org/2000/svg"
 width="133.000000pt" height="133.000000pt" viewBox="0 0 133.000000 133.000000"
 preserveAspectRatio="xMidYMid meet">

<g transform="translate(0.000000,133.000000) scale(0.100000,-0.100000)"
fill="#000000" stroke="none">
<path d="M558 1310 c-223 -40 -407 -182 -498 -384 -33 -72 -60 -193 -60 -266
0 -73 27 -194 60 -266 78 -173 222 -301 405 -361 68 -22 97 -26 200 -26 103 0
132 4 200 26 233 76 400 263 449 500 20 96 20 158 0 254 -62 300 -313 514
-618 528 -50 2 -112 0 -138 -5z m293 -468 l29 -32 0 -145 0 -145 -29 -32 -29
-33 -140 -3 c-216 -5 -232 9 -232 213 0 204 13 216 228 212 l144 -2 29 -33z"/>
<path d="M510 820 c-18 -18 -20 -33 -20 -155 0 -180 -5 -175 173 -175 185 0
177 -8 177 175 0 183 8 175 -177 175 -120 0 -135 -2 -153 -20z m221 -89 c21
-22 29 -39 29 -66 0 -44 -45 -95 -84 -95 -56 0 -107 47 -106 97 1 28 25 64 51
79 40 22 78 17 110 -15z"/>
<path d="M639 716 c-17 -8 -25 -22 -27 -44 -4 -43 12 -62 54 -62 25 0 38 7 51
26 15 23 15 29 2 52 -18 32 -50 44 -80 28z"/>
</g>
</svg>
