<?xml version="1.0" standalone="no"?>
<!DOCTYPE svg PUBLIC "-//W3C//DTD SVG 20010904//EN"
 "http://www.w3.org/TR/2001/REC-SVG-20010904/DTD/svg10.dtd">
<svg version="1.0" xmlns="http://www.w3.org/2000/svg"
 width="121.000000pt" height="94.000000pt" viewBox="0 0 121.000000 94.000000"
 preserveAspectRatio="xMidYMid meet">

<g transform="translate(0.000000,94.000000) scale(0.100000,-0.100000)"
fill="#000000" stroke="none">
<path d="M306 759 l-26 -20 0 -213 c0 -175 3 -215 16 -234 15 -21 20 -22 195
-22 l179 0 0 -54 c0 -109 20 -112 115 -16 56 57 75 70 101 70 61 0 64 12 64
253 0 204 -1 218 -20 237 -19 19 -33 20 -309 20 -277 0 -289 -1 -315 -21z
m592 -236 l-3 -198 -30 -3 c-20 -2 -47 -20 -82 -55 l-53 -51 0 41 c0 22 -6 45
-13 52 -9 6 -83 12 -198 13 l-184 3 -3 185 c-1 101 0 190 2 197 4 10 67 13
286 13 l280 0 -2 -197z"/>
<path d="M451 563 c-12 -8 -21 -23 -21 -33 0 -43 73 -59 85 -19 15 47 -25 80
-64 52z"/>
<path d="M592 564 c-28 -19 -28 -48 -1 -68 47 -33 94 28 53 68 -19 20 -24 20
-52 0z"/>
<path d="M732 564 c-43 -30 -4 -93 46 -73 29 11 31 63 3 79 -25 13 -22 13 -49
-6z"/>
</g>
</svg>
