<?xml version="1.0" standalone="no"?>
<!DOCTYPE svg PUBLIC "-//W3C//DTD SVG 20010904//EN"
 "http://www.w3.org/TR/2001/REC-SVG-20010904/DTD/svg10.dtd">
<svg version="1.0" xmlns="http://www.w3.org/2000/svg"
 width="502.000000pt" height="490.000000pt" viewBox="0 0 502.000000 490.000000"
 preserveAspectRatio="xMidYMid meet">

<g transform="translate(0.000000,490.000000) scale(0.100000,-0.100000)"
fill="#000000" stroke="none">
<path d="M2260 4829 c-374 -46 -691 -156 -999 -346 -234 -145 -432 -321 -616
-548 -126 -156 -288 -439 -359 -630 -339 -913 -111 -1915 588 -2583 183 -173
374 -306 601 -417 503 -245 1083 -305 1627 -169 582 145 1087 506 1420 1014
84 128 204 369 251 506 45 129 91 317 114 464 22 144 24 501 4 635 -82 556
-309 1016 -686 1390 -357 355 -796 580 -1300 666 -137 24 -515 34 -645 18z
m448 -1062 c131 -131 152 -156 152 -183 0 -48 -52 -84 -93 -63 -12 6 -57 45
-99 87 l-78 77 0 -267 c0 -243 -2 -268 -18 -289 -26 -31 -78 -31 -104 0 -16
21 -18 46 -18 289 l0 267 -77 -77 c-93 -92 -125 -108 -162 -80 -17 13 -27 30
-29 53 -3 32 7 44 157 193 148 146 162 158 188 152 18 -5 84 -63 181 -159z
m124 -814 c10 -9 30 -54 44 -99 l25 -83 273 -3 c272 -3 273 -3 309 -28 20 -13
45 -41 57 -62 20 -36 20 -46 18 -551 l-3 -514 -29 -37 c-53 -70 1 -66 -1006
-66 -1007 0 -953 -4 -1006 66 l-29 37 -3 514 c-2 505 -2 515 18 551 12 21 37
49 57 62 36 25 39 25 307 30 l270 5 22 78 c35 126 8 117 357 117 267 0 302 -2
319 -17z"/>
<path d="M2274 2753 c-31 -129 -12 -123 -346 -123 -156 0 -289 -4 -296 -8 -10
-7 -12 -111 -10 -488 l3 -479 895 0 895 0 3 479 c2 377 0 481 -10 488 -7 4
-142 8 -299 8 -334 0 -313 -7 -349 119 l-23 81 -223 0 -222 0 -18 -77z m411
-219 c76 -36 152 -112 190 -189 27 -55 29 -69 29 -165 0 -96 -2 -110 -29 -165
-37 -77 -113 -153 -190 -190 -55 -27 -69 -29 -165 -29 -96 0 -110 2 -165 29
-77 37 -153 113 -190 190 -27 55 -29 69 -29 165 0 96 2 110 29 165 50 102 152
187 260 216 17 5 68 7 115 5 68 -3 97 -9 145 -32z"/>
<path d="M2450 2421 c-111 -36 -180 -129 -180 -241 0 -139 111 -250 250 -250
64 0 141 32 182 76 113 121 79 321 -67 396 -43 22 -144 33 -185 19z"/>
</g>
</svg>
