<?xml version="1.0" encoding="utf-8"?>
<!-- Generator: Adobe Illustrator 23.0.2, SVG Export Plug-In . SVG Version: 6.00 Build 0)  -->
<svg version="1.1" id="Layer_1" xmlns="http://www.w3.org/2000/svg" xmlns:xlink="http://www.w3.org/1999/xlink" x="0px" y="0px"
	 viewBox="0 0 96 96" style="enable-background:new 0 0 96 96;" xml:space="preserve">
<style type="text/css">
	.st0{stroke:#000000;stroke-width:0.5;stroke-miterlimit:10;}
</style>
<g>
	<path class="st0" d="M88.7,55.5l-5-11.5c-0.1-0.2-0.3-0.3-0.5-0.3h-9.9c3.3-2,5.4-5.6,5.4-9.6c0-6.2-5-11.2-11.2-11.2
		c-5.8,0-10.7,4.5-11.2,10.2H20.5c-0.3,0-0.5,0.2-0.5,0.5v1c0,0.3,0.2,0.5,0.5,0.5h35.7c0.5,5.4,4.7,9.7,10.2,10.2v20.4H37.6
		c0-0.2-0.1-0.4-0.1-0.7c0,0,0-0.1,0-0.1c-0.1-0.3-0.2-0.7-0.4-1L37,63.8c-0.2-0.3-0.3-0.6-0.5-0.9l-0.1-0.1
		c-0.2-0.3-0.4-0.5-0.7-0.8c0,0-0.1-0.1-0.1-0.1c-0.3-0.2-0.5-0.4-0.8-0.6l-0.3,0.4l0.1-0.5c-0.3-0.2-0.6-0.3-0.9-0.5
		c0,0-0.1,0-0.1,0c-0.4-0.1-0.7-0.2-1-0.3c0,0-0.1,0-0.1,0c-0.8-0.2-1.5-0.2-2.4,0c-0.3,0.1-0.7,0.2-1.1,0.3c0,0-0.1,0-0.1,0
		c-0.3,0.1-0.6,0.3-0.9,0.5c0,0-0.1,0.1-0.1,0.1c-0.3,0.2-0.6,0.4-0.8,0.6L26.8,62c-0.2,0.2-0.5,0.5-0.7,0.8c0,0-0.1,0.1-0.1,0.1
		c-0.2,0.3-0.4,0.6-0.5,0.9c0,0-0.1,0.1-0.1,0.1c-0.2,0.3-0.3,0.7-0.4,1l0,0.1c-0.1,0.2-0.1,0.4-0.1,0.7h-4.4
		c-0.3,0-0.5,0.2-0.5,0.5v1c0,0.3,0.2,0.5,0.5,0.5h4.4c0.5,3.1,3.2,5.4,6.4,5.4s5.9-2.4,6.4-5.4h31.7c0.5,3.1,3.2,5.4,6.4,5.4
		s5.9-2.4,6.4-5.4h6.2c0.3,0,0.5-0.2,0.5-0.5V55.7C88.7,55.6,88.7,55.6,88.7,55.5z M31.3,71.1c-2.4,0-4.4-2-4.4-4.4s2-4.4,4.4-4.4
		s4.4,2,4.4,4.4S33.7,71.1,31.3,71.1z M58.2,34.1c0-5.1,4.1-9.2,9.2-9.2s9.2,4.1,9.2,9.2s-4.1,9.2-9.2,9.2S58.2,39.2,58.2,34.1z
		 M75.7,71.1c-2.4,0-4.4-2-4.4-4.4s2-4.4,4.4-4.4s4.4,2,4.4,4.4S78.1,71.1,75.7,71.1z M86.8,65.7H82c0-0.2-0.1-0.4-0.1-0.7
		c0,0,0-0.1,0-0.1c-0.1-0.3-0.2-0.7-0.4-1c0-0.1-0.1-0.1-0.1-0.2c-0.2-0.3-0.3-0.6-0.5-0.9l-0.1-0.1c-0.2-0.3-0.4-0.5-0.7-0.7
		L80,61.9c-0.3-0.2-0.5-0.4-0.8-0.6L79,61.2c-0.3-0.2-0.6-0.3-0.9-0.5c0,0-0.1,0-0.1,0c-0.4-0.1-0.7-0.2-1-0.3c0,0-0.1,0-0.1,0
		c-0.8-0.2-1.5-0.2-2.4,0c-0.3,0.1-0.7,0.2-1.1,0.3c0,0-0.1,0-0.1,0c-0.3,0.1-0.6,0.3-0.9,0.5l-0.1,0.1c-0.3,0.2-0.6,0.4-0.8,0.6
		L71.3,62c-0.2,0.2-0.5,0.5-0.7,0.7l-0.1,0.1c-0.2,0.3-0.4,0.6-0.5,0.9l-0.1,0.2c-0.2,0.3-0.3,0.6-0.4,1l0,0.2
		c-0.1,0.2-0.1,0.4-0.1,0.7h-0.9v-20h13.8l4.5,10.2L86.8,65.7z"/>
	<path class="st0" d="M7.8,41.2h31.6c0.3,0,0.5-0.2,0.5-0.5v-1c0-0.3-0.2-0.5-0.5-0.5H7.8c-0.3,0-0.5,0.2-0.5,0.5v1
		C7.3,41,7.5,41.2,7.8,41.2z"/>
	<path class="st0" d="M7.8,49.5h39.5c0.3,0,0.5-0.2,0.5-0.5v-1c0-0.3-0.2-0.5-0.5-0.5H7.8c-0.3,0-0.5,0.2-0.5,0.5v1
		C7.3,49.3,7.5,49.5,7.8,49.5z"/>
	<path class="st0" d="M39.9,57.3v-1c0-0.3-0.2-0.5-0.5-0.5H7.8c-0.3,0-0.5,0.2-0.5,0.5v1c0,0.3,0.2,0.5,0.5,0.5h31.6
		C39.7,57.8,39.9,57.6,39.9,57.3z"/>
	<path class="st0" d="M71.4,33.1h-3v-6.4c0-0.3-0.2-0.5-0.5-0.5h-1c-0.3,0-0.5,0.2-0.5,0.5v7.9c0,0.3,0.2,0.5,0.5,0.5h4.5
		c0.3,0,0.5-0.2,0.5-0.5v-1C71.9,33.3,71.7,33.1,71.4,33.1z"/>
</g>
</svg>
