<?xml version="1.0" standalone="no"?>
<!DOCTYPE svg PUBLIC "-//W3C//DTD SVG 20010904//EN"
 "http://www.w3.org/TR/2001/REC-SVG-20010904/DTD/svg10.dtd">
<svg version="1.0" xmlns="http://www.w3.org/2000/svg"
 width="220.000000pt" height="162.000000pt" viewBox="0 0 220.000000 162.000000"
 preserveAspectRatio="xMidYMid meet">

<g transform="translate(0.000000,162.000000) scale(0.100000,-0.100000)"
fill="#000000" stroke="none">
<path d="M0 810 l0 -810 1100 0 1100 0 0 810 0 810 -1100 0 -1100 0 0 -810z
m1290 420 c87 -118 163 -219 167 -225 19 -24 49 -64 63 -85 8 -13 102 -139
208 -282 106 -142 209 -282 229 -310 20 -29 40 -57 45 -63 4 -5 17 -21 28 -34
11 -13 17 -28 14 -32 -6 -10 -1857 -13 -1867 -3 -3 3 14 34 39 68 25 33 154
208 287 387 133 180 249 336 257 349 8 12 87 118 175 236 114 153 165 214 177
212 10 -2 90 -100 178 -218z"/>
<path d="M1054 987 c-2 -7 -3 -87 -2 -177 3 -156 4 -165 23 -168 41 -5 45 8
51 180 l7 165 -24 6 c-36 10 -49 8 -55 -6z"/>
<path d="M1049 583 c-25 -66 26 -118 70 -74 26 26 27 55 1 81 -29 29 -58 26
-71 -7z"/>
</g>
</svg>
