<?xml version="1.0" standalone="no"?>
<!DOCTYPE svg PUBLIC "-//W3C//DTD SVG 20010904//EN"
 "http://www.w3.org/TR/2001/REC-SVG-20010904/DTD/svg10.dtd">
<svg version="1.0" xmlns="http://www.w3.org/2000/svg"
 width="132.000000pt" height="98.000000pt" viewBox="0 0 132.000000 98.000000"
 preserveAspectRatio="xMidYMid meet">

<g transform="translate(0.000000,98.000000) scale(0.100000,-0.100000)"
fill="#000000" stroke="none">
<path d="M447 849 c-25 -15 -47 -63 -47 -102 l0 -35 -66 -4 c-58 -4 -70 -8
-90 -32 -24 -27 -24 -30 -24 -258 l0 -230 33 -33 c24 -24 46 -35 78 -40 24 -3
186 -5 359 -3 350 3 360 5 400 71 19 30 20 52 20 328 0 277 -1 298 -19 320
l-19 24 -304 2 c-197 2 -309 -1 -321 -8z m601 -66 c3 -10 7 -139 7 -286 l0
-269 -33 -29 -32 -29 -268 0 -267 0 3 292 c1 161 4 303 7 316 l5 22 286 0
c262 0 285 -1 292 -17z m-648 -351 c0 -243 -3 -255 -60 -255 -57 0 -60 13 -60
248 0 117 3 215 7 218 3 4 30 7 60 7 l53 0 0 -218z"/>
<path d="M562 708 c-15 -15 -16 -161 -2 -189 10 -18 23 -19 193 -19 100 0 188
4 195 8 9 6 12 35 10 108 l-3 99 -190 3 c-140 2 -194 -1 -203 -10z m338 -98
l0 -50 -145 0 -145 0 0 50 0 50 145 0 145 0 0 -50z"/>
<path d="M560 425 c-10 -12 -10 -18 0 -30 11 -13 43 -15 204 -13 l191 3 0 25
0 25 -191 3 c-161 2 -193 0 -204 -13z"/>
<path d="M566 305 c-8 -9 -13 -22 -9 -30 4 -13 35 -15 202 -13 182 3 196 4
199 22 2 10 -2 22 -10 27 -7 5 -93 9 -190 9 -145 0 -179 -3 -192 -15z"/>
</g>
</svg>
