<?xml version="1.0" standalone="no"?>
<!DOCTYPE svg PUBLIC "-//W3C//DTD SVG 20010904//EN"
 "http://www.w3.org/TR/2001/REC-SVG-20010904/DTD/svg10.dtd">
<svg version="1.0" xmlns="http://www.w3.org/2000/svg"
 width="138.000000pt" height="101.000000pt" viewBox="0 0 138.000000 101.000000"
 preserveAspectRatio="xMidYMid meet">

<g transform="translate(0.000000,101.000000) scale(0.100000,-0.100000)"
fill="#000000" stroke="none">
<path d="M344 856 c-32 -32 -35 -39 -32 -88 3 -49 5 -53 28 -53 22 0 26 5 31
48 6 56 18 67 77 67 41 0 43 1 40 28 -3 25 -6 27 -56 30 -49 3 -56 0 -88 -32z"/>
<path d="M900 860 c0 -28 3 -30 38 -30 53 0 65 -12 71 -67 5 -43 9 -48 31 -48
22 0 25 5 28 44 6 87 -35 131 -123 131 -43 0 -45 -1 -45 -30z"/>
<path d="M360 515 c0 -13 43 -15 341 -15 268 0 340 3 337 13 -4 9 -83 13 -341
15 -295 2 -337 0 -337 -13z"/>
<path d="M327 314 c-11 -11 -8 -103 3 -125 16 -28 63 -49 115 -49 43 0 45 1
45 30 0 28 -2 30 -38 30 -53 0 -71 17 -74 70 -2 36 -7 46 -23 48 -12 2 -24 0
-28 -4z"/>
<path d="M1020 283 c0 -59 -22 -83 -76 -83 -44 0 -45 -1 -42 -27 3 -26 7 -28
55 -31 45 -3 56 1 84 26 31 27 33 35 34 88 0 57 -1 59 -27 62 -26 3 -28 1 -28
-35z"/>
</g>
</svg>
